<svg id="visual" viewBox="0 0 960 540" width="960" height="540" xmlns="http://www.w3.org/2000/svg" xmlns:xlink="http://www.w3.org/1999/xlink" version="1.1"><rect x="0" y="0" width="960" height="540" fill="#31C6D4"></rect><path d="M0 342L11.5 343.8C23 345.7 46 349.3 68.8 347.2C91.7 345 114.3 337 137.2 337.8C160 338.7 183 348.3 205.8 349C228.7 349.7 251.3 341.3 274.2 341.5C297 341.7 320 350.3 342.8 350.8C365.7 351.3 388.3 343.7 411.2 341.5C434 339.3 457 342.7 480 348.2C503 353.7 526 361.3 548.8 363.5C571.7 365.7 594.3 362.3 617.2 358.2C640 354 663 349 685.8 345.3C708.7 341.7 731.3 339.3 754.2 339C777 338.7 800 340.3 822.8 340C845.7 339.7 868.3 337.3 891.2 339.5C914 341.7 937 348.3 948.5 351.7L960 355L960 541L948.5 541C937 541 914 541 891.2 541C868.3 541 845.7 541 822.8 541C800 541 777 541 754.2 541C731.3 541 708.7 541 685.8 541C663 541 640 541 617.2 541C594.3 541 571.7 541 548.8 541C526 541 503 541 480 541C457 541 434 541 411.2 541C388.3 541 365.7 541 342.8 541C320 541 297 541 274.2 541C251.3 541 228.7 541 205.8 541C183 541 160 541 137.2 541C114.3 541 91.7 541 68.8 541C46 541 23 541 11.5 541L0 541Z" fill="#367e18"></path><path d="M0 365L11.5 371.7C23 378.3 46 391.7 68.8 396.7C91.7 401.7 114.3 398.3 137.2 391.7C160 385 183 375 205.8 370.8C228.7 366.7 251.3 368.3 274.2 370.5C297 372.7 320 375.3 342.8 381C365.7 386.7 388.3 395.3 411.2 393.2C434 391 457 378 480 375.8C503 373.7 526 382.3 548.8 384.2C571.7 386 594.3 381 617.2 379.3C640 377.7 663 379.3 685.8 382.8C708.7 386.3 731.3 391.7 754.2 395.5C777 399.3 800 401.7 822.8 400.5C845.7 399.3 868.3 394.7 891.2 393.7C914 392.7 937 395.3 948.5 396.7L960 398L960 541L948.5 541C937 541 914 541 891.2 541C868.3 541 845.7 541 822.8 541C800 541 777 541 754.2 541C731.3 541 708.7 541 685.8 541C663 541 640 541 617.2 541C594.3 541 571.7 541 548.8 541C526 541 503 541 480 541C457 541 434 541 411.2 541C388.3 541 365.7 541 342.8 541C320 541 297 541 274.2 541C251.3 541 228.7 541 205.8 541C183 541 160 541 137.2 541C114.3 541 91.7 541 68.8 541C46 541 23 541 11.5 541L0 541Z" fill="#368c30"></path><path d="M0 424L11.5 423.5C23 423 46 422 68.8 424.3C91.7 426.7 114.3 432.3 137.2 432.7C160 433 183 428 205.8 428.3C228.7 428.7 251.3 434.3 274.2 436.8C297 439.3 320 438.7 342.8 435.2C365.7 431.7 388.3 425.3 411.2 424.8C434 424.3 457 429.7 480 428C503 426.3 526 417.7 548.8 415C571.7 412.3 594.3 415.7 617.2 421C640 426.3 663 433.7 685.8 432.5C708.7 431.3 731.3 421.7 754.2 417.3C777 413 800 414 822.8 414.3C845.7 414.7 868.3 414.3 891.2 417.8C914 421.3 937 428.7 948.5 432.3L960 436L960 541L948.5 541C937 541 914 541 891.2 541C868.3 541 845.7 541 822.8 541C800 541 777 541 754.2 541C731.3 541 708.7 541 685.8 541C663 541 640 541 617.2 541C594.3 541 571.7 541 548.8 541C526 541 503 541 480 541C457 541 434 541 411.2 541C388.3 541 365.7 541 342.8 541C320 541 297 541 274.2 541C251.3 541 228.7 541 205.8 541C183 541 160 541 137.2 541C114.3 541 91.7 541 68.8 541C46 541 23 541 11.5 541L0 541Z" fill="#349b46"></path><path d="M0 456L11.5 456C23 456 46 456 68.8 456.3C91.7 456.7 114.3 457.3 137.2 455.3C160 453.3 183 448.7 205.8 447.3C228.7 446 251.3 448 274.2 451C297 454 320 458 342.8 461.5C365.7 465 388.3 468 411.2 465.3C434 462.7 457 454.3 480 452.5C503 450.7 526 455.3 548.8 458.7C571.7 462 594.3 464 617.2 462.7C640 461.3 663 456.7 685.8 454C708.7 451.3 731.3 450.7 754.2 453.7C777 456.7 800 463.3 822.8 465.7C845.7 468 868.3 466 891.2 466.2C914 466.3 937 468.7 948.5 469.8L960 471L960 541L948.5 541C937 541 914 541 891.2 541C868.3 541 845.7 541 822.8 541C800 541 777 541 754.2 541C731.3 541 708.7 541 685.8 541C663 541 640 541 617.2 541C594.3 541 571.7 541 548.8 541C526 541 503 541 480 541C457 541 434 541 411.2 541C388.3 541 365.7 541 342.8 541C320 541 297 541 274.2 541C251.3 541 228.7 541 205.8 541C183 541 160 541 137.2 541C114.3 541 91.7 541 68.8 541C46 541 23 541 11.5 541L0 541Z" fill="#31a95c"></path><path d="M0 506L11.5 506.2C23 506.3 46 506.7 68.8 505.2C91.7 503.7 114.3 500.3 137.2 497C160 493.7 183 490.3 205.8 492C228.7 493.7 251.3 500.3 274.2 503.2C297 506 320 505 342.8 503.5C365.7 502 388.3 500 411.2 496.2C434 492.3 457 486.7 480 486C503 485.3 526 489.7 548.8 490.2C571.7 490.7 594.3 487.3 617.2 489.5C640 491.7 663 499.3 685.8 499.7C708.7 500 731.3 493 754.2 493C777 493 800 500 822.8 502.5C845.7 505 868.3 503 891.2 501.7C914 500.3 937 499.7 948.5 499.3L960 499L960 541L948.5 541C937 541 914 541 891.2 541C868.3 541 845.7 541 822.8 541C800 541 777 541 754.2 541C731.3 541 708.7 541 685.8 541C663 541 640 541 617.2 541C594.3 541 571.7 541 548.8 541C526 541 503 541 480 541C457 541 434 541 411.2 541C388.3 541 365.7 541 342.8 541C320 541 297 541 274.2 541C251.3 541 228.7 541 205.8 541C183 541 160 541 137.2 541C114.3 541 91.7 541 68.8 541C46 541 23 541 11.5 541L0 541Z" fill="#2eb872"></path></svg>