<?xml version="1.0" encoding="iso-8859-1"?>
<!-- Generator: Adobe Illustrator 19.0.0, SVG Export Plug-In . SVG Version: 6.00 Build 0)  -->
<svg version="1.1" id="Capa_1" xmlns="http://www.w3.org/2000/svg" xmlns:xlink="http://www.w3.org/1999/xlink" x="0px" y="0px"
	 viewBox="0 0 469.996 469.996" style="enable-background:new 0 0 469.996 469.996;" xml:space="preserve">
<g>
	<path style="fill:#5D734F;" d="M132.668,462.496h204.66c-29.359-22.191-65.345-34.327-102.33-34.327
		S162.027,440.305,132.668,462.496z"/>
	<path style="fill:#D4ED85;" d="M108.755,234.352c1.049,0.65,2.116,1.288,3.183,1.927c5.318,3.18,10.818,6.468,14.788,11.439
		c3.994,5.002,5.992,11.115,7.924,17.028c1.901,5.818,3.697,11.314,6.878,13.854c3.149,2.515,8.887,3.048,14.962,3.612
		c5.881,0.547,11.953,1.111,17.5,3.545c14.621-18.78,36.933-29.797,61.008-29.797c24.077,0,46.387,11.015,61.008,29.797
		c5.547-2.434,11.619-2.998,17.501-3.544c6.075-0.565,11.813-1.099,14.961-3.613c3.181-2.54,4.977-8.035,6.878-13.854
		c1.932-5.912,3.93-12.025,7.923-17.027c3.969-4.971,9.467-8.258,14.784-11.437c5.274-3.153,10.256-6.132,12.044-9.838
		c1.727-3.58,0.971-9.267,0.171-15.287c-0.825-6.204-1.678-12.62-0.242-18.937c1.386-6.097,4.871-11.384,8.241-16.496
		c3.417-5.183,6.644-10.078,6.644-14.338c0-4.259-3.227-9.154-6.644-14.338c-3.37-5.112-6.855-10.399-8.241-16.496
		c-1.436-6.315-0.583-12.731,0.242-18.936c0.8-6.02,1.556-11.707-0.171-15.287c-1.788-3.706-6.77-6.685-12.044-9.838
		c-5.317-3.179-10.815-6.466-14.784-11.437c-3.994-5.001-5.992-11.115-7.923-17.027c-1.901-5.818-3.697-11.314-6.878-13.854
		c-3.15-2.516-8.888-3.049-14.962-3.614c-6.209-0.577-12.63-1.174-18.423-3.969c-5.679-2.739-10.081-7.34-14.338-11.788
		c-4.271-4.462-8.305-8.678-12.378-9.604c-3.8-0.863-9.131,1.125-14.776,3.229c-5.914,2.205-12.029,4.485-18.593,4.485
		s-12.679-2.28-18.593-4.485c-5.646-2.104-10.98-4.091-14.777-3.229c-4.072,0.926-8.106,5.141-12.376,9.604
		c-4.257,4.448-8.659,9.048-14.338,11.788c-5.794,2.795-12.216,3.393-18.426,3.97c-1.205,0.112-2.409,0.225-3.602,0.354
		c-3.971,0.436-7.556-2.333-8.199-6.233c-2.92,0.738-5.6,1.843-7.839,3.631c-2.282,1.822-3.973,4.246-5.355,6.984
		c3.666,1.485,5.576,5.589,4.277,9.375c-0.379,1.105-0.745,2.225-1.111,3.343c-1.935,5.917-3.936,12.036-7.932,17.042
		c-3.969,4.97-9.467,8.257-14.784,11.436c-5.275,3.154-10.257,6.133-12.045,9.838c-1.728,3.581-0.971,9.268-0.171,15.288
		c0.825,6.204,1.677,12.62,0.242,18.936c-1.386,6.097-4.871,11.384-8.241,16.496c-3.417,5.184-6.644,10.079-6.644,14.338
		c0,4.26,3.227,9.155,6.644,14.339c3.37,5.112,6.854,10.399,8.24,16.495c1.436,6.316,0.583,12.733-0.241,18.938
		c-0.151,1.135-0.302,2.268-0.436,3.395c-0.454,3.812-3.692,6.614-7.438,6.614c-0.162,0-0.326-0.019-0.49-0.029
		c0.052,3.058,0.521,5.957,1.779,8.564c1.257,2.605,3.206,4.78,5.527,6.719C100.936,233.188,105.356,232.244,108.755,234.352z
		 M308.227,133.484c15.386,0,27.904,12.518,27.904,27.903c0,15.387-12.518,27.904-27.904,27.904
		c-15.386,0-27.903-12.518-27.903-27.904C280.324,146.002,292.842,133.484,308.227,133.484z M234.998,67.229
		c15.386,0,27.904,12.518,27.904,27.903s-12.518,27.903-27.904,27.903s-27.904-12.518-27.904-27.903S219.612,67.229,234.998,67.229z
		 M161.768,133.484c15.386,0,27.903,12.518,27.903,27.903c0,15.387-12.518,27.904-27.903,27.904
		c-15.386,0-27.904-12.518-27.904-27.904C133.865,146.002,146.382,133.484,161.768,133.484z"/>
	<path style="fill:#D35B38;" d="M308.227,174.292c7.115,0,12.904-5.789,12.904-12.904s-5.789-12.903-12.904-12.903
		c-7.115,0-12.903,5.788-12.903,12.903S301.113,174.292,308.227,174.292z"/>
	<path style="fill:#4D3D36;" d="M308.227,189.292c15.386,0,27.904-12.518,27.904-27.904c0-15.386-12.518-27.903-27.904-27.903
		c-15.386,0-27.903,12.518-27.903,27.903C280.324,176.774,292.842,189.292,308.227,189.292z M308.227,148.484
		c7.115,0,12.904,5.788,12.904,12.903s-5.789,12.904-12.904,12.904c-7.115,0-12.903-5.789-12.903-12.904
		S301.113,148.484,308.227,148.484z"/>
	<path style="fill:#D35B38;" d="M234.998,108.036c7.115,0,12.904-5.788,12.904-12.903s-5.789-12.903-12.904-12.903
		s-12.904,5.788-12.904,12.903S227.883,108.036,234.998,108.036z"/>
	<path style="fill:#4D3D36;" d="M234.998,123.036c15.386,0,27.904-12.518,27.904-27.903s-12.518-27.903-27.904-27.903
		s-27.904,12.518-27.904,27.903S219.612,123.036,234.998,123.036z M234.998,82.229c7.115,0,12.904,5.788,12.904,12.903
		s-5.789,12.903-12.904,12.903s-12.904-5.788-12.904-12.903S227.883,82.229,234.998,82.229z"/>
	<path style="fill:#D35B38;" d="M161.768,174.292c7.115,0,12.903-5.789,12.903-12.904s-5.789-12.903-12.903-12.903
		c-7.115,0-12.904,5.788-12.904,12.903S154.653,174.292,161.768,174.292z"/>
	<path style="fill:#4D3D36;" d="M161.768,189.292c15.386,0,27.903-12.518,27.903-27.904c0-15.386-12.518-27.903-27.903-27.903
		c-15.386,0-27.904,12.518-27.904,27.903C133.865,176.774,146.382,189.292,161.768,189.292z M161.768,148.484
		c7.115,0,12.903,5.788,12.903,12.903s-5.789,12.904-12.903,12.904c-7.115,0-12.904-5.789-12.904-12.904
		S154.653,148.484,161.768,148.484z"/>
	<path style="fill:#4D3D36;" d="M390.792,183.981c4.274-6.485,9.12-13.835,9.12-22.594c0-8.758-4.845-16.108-9.12-22.593
		c-2.754-4.179-5.356-8.125-6.138-11.565c-0.838-3.688-0.196-8.519,0.484-13.634c1.007-7.574,2.148-16.158-1.53-23.782
		c-3.741-7.756-11.241-12.239-17.857-16.195c-4.363-2.608-8.484-5.072-10.759-7.921c-2.3-2.881-3.8-7.469-5.387-12.327
		c-2.386-7.302-5.09-15.578-11.776-20.916c-6.654-5.314-15.303-6.118-22.934-6.828c-5.11-0.475-9.936-0.923-13.293-2.543
		c-3.236-1.562-6.531-5.004-10.019-8.649C286.229,8.84,280.161,2.5,271.692,0.574c-8.166-1.854-16.229,1.15-23.341,3.802
		c-4.883,1.82-9.495,3.54-13.353,3.54s-8.47-1.72-13.353-3.54c-7.113-2.651-15.177-5.655-23.342-3.802
		c-8.468,1.926-14.536,8.266-19.889,13.859c-3.488,3.646-6.783,7.089-10.019,8.649c-3.358,1.62-8.187,2.069-13.298,2.545
		c-1.281,0.119-2.562,0.238-3.83,0.376c-4.118,0.447-7.094,4.147-6.647,8.266c0.015,0.14,0.043,0.276,0.066,0.413
		c0.643,3.9,4.228,6.669,8.199,6.233c1.193-0.129,2.397-0.241,3.602-0.354c6.21-0.577,12.631-1.175,18.426-3.97
		c5.679-2.74,10.081-7.34,14.338-11.788c4.271-4.463,8.304-8.678,12.376-9.604c3.797-0.861,9.131,1.125,14.777,3.229
		c5.914,2.205,12.029,4.485,18.593,4.485s12.679-2.28,18.593-4.485c5.645-2.104,10.977-4.093,14.776-3.229
		c4.074,0.926,8.107,5.142,12.378,9.604c4.257,4.448,8.659,9.049,14.338,11.788c5.793,2.795,12.214,3.392,18.423,3.969
		c6.075,0.565,11.813,1.099,14.962,3.614c3.181,2.539,4.977,8.035,6.878,13.854c1.932,5.912,3.93,12.026,7.923,17.027
		c3.969,4.971,9.467,8.258,14.784,11.437c5.274,3.153,10.256,6.132,12.044,9.838c1.727,3.58,0.971,9.268,0.171,15.287
		c-0.825,6.204-1.678,12.62-0.242,18.936c1.386,6.097,4.871,11.384,8.241,16.496c3.417,5.184,6.644,10.079,6.644,14.338
		c0,4.26-3.227,9.155-6.644,14.338c-3.37,5.112-6.855,10.399-8.241,16.496c-1.436,6.316-0.583,12.732,0.242,18.937
		c0.8,6.021,1.556,11.707-0.171,15.287c-1.788,3.706-6.77,6.685-12.044,9.838c-5.317,3.179-10.815,6.466-14.784,11.437
		c-3.994,5.002-5.992,11.115-7.923,17.027c-1.902,5.819-3.698,11.314-6.878,13.854c-3.149,2.515-8.887,3.048-14.961,3.613
		c-5.882,0.546-11.954,1.11-17.501,3.544c-14.621-18.782-36.931-29.797-61.008-29.797c-24.075,0-46.387,11.017-61.008,29.797
		c-5.548-2.434-11.619-2.998-17.5-3.545c-6.075-0.564-11.813-1.098-14.962-3.612c-3.181-2.54-4.977-8.036-6.878-13.854
		c-1.932-5.913-3.93-12.026-7.924-17.028c-3.97-4.972-9.469-8.26-14.788-11.439c-1.067-0.639-2.134-1.276-3.183-1.927
		c-3.399-2.109-7.818-1.165-10.085,2.07c-0.081,0.116-0.167,0.228-0.242,0.35c-2.183,3.52-1.1,8.144,2.42,10.326
		c1.118,0.693,2.256,1.374,3.393,2.055c4.365,2.609,8.488,5.074,10.764,7.925c2.3,2.881,3.8,7.47,5.387,12.328
		c2.386,7.302,5.09,15.577,11.776,20.917c6.654,5.313,15.303,6.117,22.934,6.826c5.11,0.476,9.936,0.924,13.291,2.542
		c0.954,0.461,1.958,1.108,3.068,1.979c1.664,1.306,3.802,1.849,5.887,1.493c2.085-0.354,3.923-1.572,5.063-3.354
		c1.888-2.954,3.997-5.709,6.292-8.259l38.797,35.411v86.366c-40.931,1.668-80.339,16.94-111.694,43.44
		c-3.164,2.674-3.561,7.406-0.887,10.569c2.674,3.164,7.405,3.56,10.569,0.888c2.344-1.981,4.743-3.885,7.181-5.729
		c29.359-22.191,65.345-34.327,102.33-34.327s72.971,12.136,102.33,34.327c2.439,1.843,4.837,3.748,7.181,5.729
		c1.408,1.19,3.127,1.771,4.837,1.771c2.131,0,4.249-0.903,5.732-2.659c2.674-3.163,2.277-7.896-0.887-10.569
		c-31.354-26.5-70.763-41.772-111.694-43.44v-86.366l38.797-35.411c2.294,2.549,4.403,5.304,6.291,8.259
		c1.139,1.782,2.978,3,5.063,3.354c0.418,0.071,0.839,0.106,1.257,0.106c1.667,0,3.3-0.556,4.63-1.6
		c1.11-0.871,2.113-1.518,3.066-1.978c3.357-1.62,8.184-2.068,13.293-2.543c7.63-0.71,16.278-1.514,22.933-6.827
		c6.686-5.339,9.39-13.615,11.776-20.917c1.587-4.857,3.087-9.446,5.387-12.327c2.275-2.849,6.396-5.313,10.759-7.921
		c6.616-3.956,14.116-8.439,17.857-16.195c3.678-7.624,2.537-16.208,1.53-23.781c-0.68-5.115-1.322-9.947-0.484-13.636
		C385.436,192.105,388.038,188.159,390.792,183.981z M200.079,281.628c8.122-5.499,17.491-9.026,27.419-10.214v35.24
		L200.079,281.628z M242.498,271.413c9.928,1.189,19.297,4.716,27.419,10.214l-27.419,25.026V271.413z"/>
	<path style="fill:#4D3D36;" d="M99.291,214.555c0.134-1.127,0.285-2.26,0.436-3.395c0.825-6.205,1.677-12.622,0.241-18.938
		c-1.386-6.096-4.87-11.383-8.24-16.495c-3.417-5.184-6.644-10.079-6.644-14.339c0-4.259,3.227-9.154,6.644-14.338
		c3.37-5.112,6.855-10.399,8.241-16.496c1.436-6.315,0.583-12.731-0.242-18.936c-0.8-6.021-1.557-11.707,0.171-15.288
		c1.788-3.705,6.77-6.684,12.045-9.838c5.316-3.179,10.814-6.466,14.784-11.436c3.997-5.006,5.997-11.125,7.932-17.042
		c0.366-1.118,0.732-2.237,1.111-3.343c1.3-3.786-0.611-7.89-4.277-9.375c-0.127-0.052-0.252-0.108-0.383-0.153
		c-3.914-1.346-8.184,0.741-9.528,4.659c-0.403,1.174-0.792,2.362-1.18,3.55c-1.591,4.864-3.093,9.458-5.397,12.345
		c-2.275,2.848-6.396,5.313-10.759,7.921c-6.617,3.956-14.116,8.439-17.857,16.194c-3.678,7.624-2.537,16.209-1.53,23.782
		c0.68,5.115,1.322,9.947,0.484,13.635c-0.782,3.44-3.383,7.387-6.138,11.565c-4.274,6.484-9.12,13.835-9.12,22.593
		c0,8.759,4.845,16.109,9.12,22.595c2.754,4.178,5.355,8.124,6.137,11.564c0.839,3.688,0.196,8.521-0.484,13.637
		c-0.16,1.203-0.319,2.404-0.461,3.598c-0.49,4.113,2.448,7.845,6.561,8.334c0.136,0.016,0.27,0.016,0.406,0.024
		c0.163,0.011,0.328,0.029,0.49,0.029C95.6,221.169,98.838,218.366,99.291,214.555z"/>
</g>
<g>
</g>
<g>
</g>
<g>
</g>
<g>
</g>
<g>
</g>
<g>
</g>
<g>
</g>
<g>
</g>
<g>
</g>
<g>
</g>
<g>
</g>
<g>
</g>
<g>
</g>
<g>
</g>
<g>
</g>
</svg>
